<svg id="Graphic_Element" data-name="Graphic Element" xmlns="http://www.w3.org/2000/svg" viewBox="0 0 1200 1200"><g id="Graphic_Element-2" data-name="Graphic Element"><path id="path3859" d="M517.6,849.36c-29.31-40.35-72.75-86.8-172.16-156.51-124.89-87.58-169.3-146.67-174.53-232.18-4.18-68.47,13.73-117.34,60.24-164.4,39.6-40.06,82.22-61.95,134.37-69,72.43-9.83,134.86,7.91,200.36,57,35.78,26.79,41.26,29,46.78,19,3.44-6.25,23.68-22.82,45-36.82,134.91-88.69,315.7-47.79,380.31,86,15.11,31.3,18.24,46.55,18.1,88.16-.14,42-3.25,56.32-18.9,86.84-24.65,48.05-77,103-144.15,151.44C725.92,799.27,690.78,830,649,892.45c-35.46,66-89.83,112.7-74.5,102.63-18.36-49.94-5.49-74.59-56.92-145.72Z" style="fill:red"/><path id="path3825" d="M582.5,275.15c-1.53-1.2-.69-5.47,2.79-12.43s9.64-16.63,19.18-28A249.85,249.85,0,0,1,644,197.21a284.1,284.1,0,0,1,63.87-36.84,301.06,301.06,0,0,1,79.94-20.79,309.5,309.5,0,0,1,95.71,3.58,300.87,300.87,0,0,1,91.83,34.14,288.41,288.41,0,0,1,81.52,69.33,266.74,266.74,0,0,1,47.33,90.69,257.24,257.24,0,0,1,8.56,107.29,271,271,0,0,1-11.91,48.79c-11.56,33.63-29.13,64.05-49.85,90.31-32,40.62-69.71,72.34-107.14,98.66-43.6,30.93-86.69,55.58-125.08,79.47s-72.1,47-99.79,71.54h0a479.75,479.75,0,0,0-65.19,70,572.86,572.86,0,0,0-40.65,61.41c-10.23,17.69-17.58,32-23.12,41.65s-9.28,14.62-11.57,14-3-6.94-1.59-18.3,4.92-27.83,11.93-48.31A394.67,394.67,0,0,1,622,882.18a440.72,440.72,0,0,1,63.76-83.6h0c28.72-29.33,63.59-57,101.88-83.79s80-52.89,119.62-82.63c33.78-25.57,66.68-53.93,92.45-88,16.5-22,30.57-46.29,39.57-72a187.13,187.13,0,0,0,8.93-36.62c4.08-26.85,1.6-54.42-5.68-80.26a216.37,216.37,0,0,0-34.72-70.43c-17.3-23.24-39.09-42.27-62.59-57a264.44,264.44,0,0,0-73.55-31.68,278.57,278.57,0,0,0-80-8.51,287.29,287.29,0,0,0-70,11.38,304,304,0,0,0-60.1,25,374,374,0,0,0-42,26.82c-11.13,8.12-19.55,14.91-25.66,19.27s-9.94,6.27-11.47,5.08Z" style="fill-rule:evenodd"/><path id="path3825-8" d="M597.73,284.3c-1.6,1.11-5.34-1.07-11.26-5.81s-14.05-12-24.9-20.7a333,333,0,0,0-41.31-28.44,273.29,273.29,0,0,0-60-25.92A259.19,259.19,0,0,0,389.8,193,251.68,251.68,0,0,0,310.14,205,242.68,242.68,0,0,0,233.3,246.5c-23.78,19.07-44.82,43.31-59.45,71.74a216.18,216.18,0,0,0-23.39,83.41c-2.19,29.7,1.64,60.37,12.7,88.51l.1.26c12.15,31.95,33.31,60.64,57.49,85.85,25.68,26.65,55.66,49.15,86,70.36,34.71,24,70.35,46.56,103,70.65s62.24,49.65,86.71,77.4a364.38,364.38,0,0,1,63,102.92,340.45,340.45,0,0,1,22.68,87.95c2.85,24.78,2.1,44.22.34,57.27s-4.47,19.77-7,19.75-4.84-6.75-7.81-19-6.73-30.19-13.44-52.28a416.68,416.68,0,0,0-31.55-76.55,361.5,361.5,0,0,0-63.28-85.51c-22.67-22.9-50.5-44-82.39-65S309.05,722.41,272.05,698c-32.61-21.21-66.26-45.62-97.24-76.48-29.43-29.21-55.65-65-72.4-107.46a3.45,3.45,0,0,1-.14-.34A265.88,265.88,0,0,1,86,396.51a271.21,271.21,0,0,1,32.61-108,281.31,281.31,0,0,1,78.63-89.06,284,284,0,0,1,195.18-54.74,279.42,279.42,0,0,1,81.72,20,263.9,263.9,0,0,1,64.51,38.23,235.73,235.73,0,0,1,38.9,39.42c9.19,11.94,14.93,22.06,18.09,29.3s3.74,11.6,2.13,12.71Z" style="fill-rule:evenodd"/></g></svg>